HIERARCHY
ROOT Hips
{
	OFFSET 0.000000 0.000000 0.000000 
	CHANNELS 6 Xposition Yposition Zposition Zrotation Yrotation Xrotation
	JOINT LeftUpLeg
	{
		OFFSET 1.363060 -1.794630 0.839290 
		CHANNELS 3 Zrotation Yrotation Xrotation
		JOINT LeftLeg
		{
			OFFSET 2.448110 -6.726130 0.000000 
			CHANNELS 3 Zrotation Yrotation Xrotation
			JOINT LeftFoot
			{
				OFFSET 2.562200 -7.039590 0.000000 
				CHANNELS 3 Zrotation Yrotation Xrotation
				JOINT LeftToeBase
				{
					OFFSET 0.157640 -0.433110 2.322550 
					CHANNELS 3 Zrotation Yrotation Xrotation
					End Site
					{
						OFFSET 0.000000 0.000000 0.000000 
					}
				}
			}
		}
	}
	JOINT RightUpLeg
	{
		OFFSET -1.305520 -1.794630 0.839290 
		CHANNELS 3 Zrotation Yrotation Xrotation
		JOINT RightLeg
		{
			OFFSET -2.542530 -6.985550 0.000000 
			CHANNELS 3 Zrotation Yrotation Xrotation
			JOINT RightFoot
			{
				OFFSET -2.568260 -7.056230 0.000000 
				CHANNELS 3 Zrotation Yrotation Xrotation
				JOINT RightToeBase
				{
					OFFSET -0.164730 -0.452590 2.363150 
					CHANNELS 3 Zrotation Yrotation Xrotation
					End Site
					{
						OFFSET 0.000000 0.000000 0.000000 
					}
				}
			}
		}
	}
	JOINT Spine
	{
		OFFSET 0.028270 2.035590 -0.193380 
		CHANNELS 3 Zrotation Yrotation Xrotation
		JOINT Spine1
		{
			OFFSET 0.056720 2.048850 -0.042750 
			CHANNELS 3 Zrotation Yrotation Xrotation
			JOINT Neck1
			{
				OFFSET -0.054170 1.746240 0.172020 
				CHANNELS 3 Zrotation Yrotation Xrotation
				JOINT Head
				{
					OFFSET 0.104070 1.761360 -0.123970 
					CHANNELS 3 Zrotation Yrotation Xrotation
					End Site
					{
						OFFSET 0.000000 0.000000 0.000000 
					}
				}
			}
			JOINT LeftArm
			{
				OFFSET 3.362410 1.200890 -0.311210 
				CHANNELS 3 Zrotation Yrotation Xrotation
				JOINT LeftForeArm
				{
					OFFSET 4.983000 -0.000000 -0.000000 
					CHANNELS 3 Zrotation Yrotation Xrotation
					JOINT LeftHand
					{
						OFFSET 3.483560 -0.000000 -0.000000 
						CHANNELS 3 Zrotation Yrotation Xrotation
						JOINT LeftHandIndex1
						{
							OFFSET 0.715260 -0.000000 -0.000000 
							CHANNELS 3 Zrotation Yrotation Xrotation
							End Site
							{
								OFFSET 0.000000 0.000000 0.000000 
							}
						}
					}
				}
			}
			JOINT RightArm
			{
				OFFSET -3.136600 1.374050 -0.404650 
				CHANNELS 3 Zrotation Yrotation Xrotation
				JOINT RightForeArm
				{
					OFFSET -5.241900 -0.000000 -0.000000 
					CHANNELS 3 Zrotation Yrotation Xrotation
					JOINT RightHand
					{
						OFFSET -3.444170 -0.000000 -0.000000 
						CHANNELS 3 Zrotation Yrotation Xrotation
						JOINT RightHandIndex1
						{
							OFFSET -0.622530 -0.000000 -0.000000 
							CHANNELS 3 Zrotation Yrotation Xrotation
							End Site
							{
								OFFSET 0.000000 0.000000 0.000000 
							}
						}
					}
				}
			}
		}
	}
}
MOTION
Frames: 6
Frame Time: 0.041667
-11.597567 17.929933 14.567127 -19.338036 74.445370 -14.821188 -6.854934 -5.120827 -29.206387 -1.770519 4.750641 12.223685 -1.254688 7.836981 6.279325 0.095200 -1.989900 -5.477600 20.593564 -8.554850 7.595573 0.901715 -1.455251 6.096911 2.690876 -12.002359 -4.029815 -0.120300 2.236400 -6.159500 1.319431 6.188945 0.295971 -3.292841 3.232053 -4.092890 5.303060 -4.978553 18.450740 4.113700 -2.844600 13.993500 -77.620581 7.719700 2.883809 12.367516 -18.653369 -2.434722 -2.197886 -2.555080 10.946410 -7.125000 0.000000 0.000000 72.951793 2.781112 6.598150 -15.503075 23.570905 -3.666320 0.539098 -0.113218 1.621345 7.125000 0.000000 0.000000 
-11.497051 17.929730 14.585669 -19.624310 74.556400 -14.931014 -6.737931 -5.393538 -29.144486 -1.753868 4.804092 12.386609 -1.176810 7.511746 6.236366 0.011600 -0.694200 -1.907900 20.580527 -8.474424 7.982485 0.917946 -1.339861 5.773686 2.752995 -12.233371 -3.818037 -0.147700 2.476800 -6.825300 1.301293 6.342262 0.300718 -3.396924 3.315488 -3.983297 5.295688 -4.998488 18.383689 4.092100 -2.843300 13.975800 -77.606654 7.904940 2.358536 12.125506 -18.317931 -2.333135 -2.243093 -2.557365 11.818939 -7.125000 0.000000 0.000000 72.941735 3.185718 6.498890 -15.754775 23.896166 -3.776672 0.553799 -0.101458 1.026930 7.125000 0.000000 0.000000 
-11.392280 17.919699 14.601375 -19.410587 74.736933 -14.538945 -7.228952 -4.946617 -29.428006 -1.750956 4.857478 12.552826 -0.992803 6.856864 6.634697 0.092000 -1.956300 -5.384800 20.427301 -8.438183 8.346508 0.931550 -1.230512 5.479260 2.800945 -12.411046 -3.742746 -0.138700 2.400100 -6.612600 1.282079 6.468177 0.293256 -3.410093 3.387941 -3.910661 5.301007 -5.036802 18.388204 4.095500 -2.861500 14.000500 -77.606320 8.187715 2.115867 11.868652 -17.958282 -2.228164 -2.278090 -2.536774 12.469608 -7.125000 0.000000 0.000000 72.828076 3.452831 6.585452 -16.075046 24.314813 -3.921687 0.563101 -0.080439 0.253064 7.125000 0.000000 0.000000 
-11.284672 17.916456 14.610798 -19.642489 74.912860 -14.620643 -7.310218 -5.130651 -29.352168 -1.743841 4.897178 12.679485 -0.942046 6.637292 6.601195 0.085700 -1.888800 -5.198300 20.376611 -8.452105 8.820137 0.951725 -1.064776 5.026089 2.873053 -12.684051 -3.593118 -0.134400 2.363200 -6.510600 1.236635 6.584887 0.238782 -3.636248 3.446698 -4.000726 5.284606 -5.111995 18.367248 4.072300 -2.889400 14.000200 -77.554775 8.556989 1.771598 11.656628 -17.660544 -2.142583 -2.262129 -2.529571 13.110407 -7.125000 0.000000 0.000000 72.824232 3.571000 6.584650 -16.388228 24.725961 -4.067808 0.569195 -0.072367 -0.212032 7.125000 0.000000 0.000000 
-11.170478 17.914025 14.617992 -20.061526 75.061326 -14.942247 -7.336718 -5.287363 -29.184833 -1.735564 4.927272 12.786415 -0.888250 6.424766 6.685655 0.054500 -1.505900 -4.141900 20.350038 -8.440529 9.279192 0.962207 -0.966702 4.745372 2.962288 -13.021272 -3.410776 -0.162400 2.596300 -7.156700 1.226050 6.691869 0.208608 -3.786152 3.500635 -4.046685 5.214888 -5.106926 18.317966 4.027400 -2.887700 13.966500 -77.608183 8.878801 1.330721 11.440405 -17.343715 -2.055116 -2.209546 -2.511504 13.716826 -7.125000 0.000000 0.000000 72.817812 3.752442 6.493188 -16.656952 25.076866 -4.195425 0.568411 -0.078047 -0.407952 7.125000 0.000000 0.000000 
-11.048583 17.913011 14.626605 -20.142729 75.099386 -14.964743 -7.400880 -5.375279 -28.991118 -1.720739 4.989241 12.975020 -0.839121 6.203333 6.638034 0.039500 -1.282900 -3.527600 20.279046 -8.450926 10.208368 0.996290 -0.641118 3.844535 3.091608 -13.528394 -2.936644 -0.203500 2.904500 -8.013000 1.253533 6.828204 0.211667 -3.771989 3.572890 -4.021389 5.169714 -5.071151 18.300819 4.027900 -2.889600 13.968200 -77.822381 9.134650 0.684866 11.194753 -16.971855 -1.954680 -2.200439 -2.467464 14.527001 -7.125000 0.000000 0.000000 72.754111 3.964834 6.301274 -16.957659 25.468239 -4.341118 0.555646 -0.081489 -0.603353 7.125000 0.000000 0.000000 
